<svg preserveAspectRatio="none" width="100%" height="100%" overflow="visible" style="display: block;" viewBox="0 0 24 24" fill="none" xmlns="http://www.w3.org/2000/svg">
<g id="lineicons:notion" clip-path="url(#clip0_0_33)">
<path id="Vector" fill-rule="evenodd" clip-rule="evenodd" d="M4.66909 4.42354C5.39476 5.01387 5.66659 4.96837 7.02926 4.87854L19.8778 4.1062C20.1496 4.1062 19.9233 3.83437 19.8323 3.78887L17.6984 2.24654C17.2901 1.9292 16.7453 1.56637 15.7011 1.6562L3.26093 2.56387C2.80593 2.60937 2.71609 2.8357 2.89693 3.01887L4.66909 4.42354ZM5.43909 7.41837V20.9365C5.43909 21.6622 5.80309 21.934 6.61976 21.8897L20.7399 21.073C21.5566 21.0275 21.6488 20.5282 21.6488 19.9379V6.50954C21.6488 5.92154 21.4224 5.60304 20.9219 5.64854L6.16593 6.5107C5.62109 6.5562 5.43909 6.82804 5.43909 7.41837ZM19.3796 8.14287C19.4706 8.5512 19.3796 8.95954 18.9713 9.0062L18.2899 9.14154V19.1224C17.6996 19.4397 17.1548 19.6205 16.7009 19.6205C15.9741 19.6205 15.7921 19.3942 15.2484 18.714L10.7976 11.728V18.4865L12.2058 18.805C12.2058 18.805 12.2058 19.6217 11.0706 19.6217L7.93809 19.8025C7.84709 19.6205 7.93809 19.1679 8.25543 19.0769L9.07209 18.8505V9.91387L7.93809 9.8217C7.84709 9.41337 8.07343 8.8242 8.71043 8.7787L12.0704 8.55237L16.7021 15.6294V9.36904L15.5203 9.2337C15.4293 8.7332 15.7921 8.37037 16.2471 8.32604L19.3796 8.14287ZM2.21676 1.33887L15.1551 0.386869C16.7453 0.250369 17.1536 0.341369 18.1534 1.06704L22.2834 3.9697C22.9648 4.46904 23.1923 4.60554 23.1923 5.1492V21.073C23.1923 22.0705 22.8283 22.6597 21.5578 22.7507L6.53109 23.6584C5.57559 23.705 5.12176 23.5685 4.62243 22.9327L1.58093 18.9859C1.03609 18.259 0.808594 17.7154 0.808594 17.0795V2.9267C0.808594 2.11004 1.17259 1.42987 2.21559 1.34004" fill="var(--fill-0, black)"/>
</g>
<defs>
<clipPath id="clip0_0_33">
<rect width="24" height="24" fill="white"/>
</clipPath>
</defs>
</svg>
