<svg width="195" height="15" viewBox="0 0 195 15" fill="none" xmlns="http://www.w3.org/2000/svg">
<path d="M38.9795 4.6963C39.4703 4.64704 39.8451 4.72714 40.2625 4.93543C43.0517 6.32669 41.7037 9.74512 40.7306 11.8827C40.66 12.0381 40.6855 12.3962 40.7434 12.5677C40.8683 12.9261 41.2399 12.9769 41.5685 12.9662C42.0941 12.9488 42.4128 13.0532 42.504 12.4076C42.8249 10.1355 43.0815 7.77292 42.503 5.51992C42.4433 5.2881 41.807 5.22422 41.6853 5.04961L41.7456 4.97082C42.2964 4.73623 44.3339 4.9732 45.0373 4.95605C45.2698 4.95038 45.1683 5.34105 45.2794 5.49856C45.7003 5.5887 47.0617 4.02954 48.7688 4.98118C49.2444 5.24846 49.6397 5.63818 49.9137 6.10984C50.9685 7.94256 49.6504 10.3587 48.9768 12.1134C48.9438 12.1996 48.9633 12.3959 48.9906 12.485C49.1414 12.9754 49.6447 12.9236 49.9879 13.1135L49.9989 13.1745C49.732 13.4578 48.8575 13.2533 48.4614 13.2647C48.2414 13.2707 47.0603 13.3364 47.0124 13.0972C46.8498 12.2816 47.3037 11.2978 47.5135 10.505C47.7903 9.26103 48.147 7.61499 47.5266 6.43103C47.1298 5.67402 46.3821 5.64208 45.7202 6.0488C45.4583 6.25216 45.2968 6.44629 45.1743 6.75399C44.6469 8.07849 45.0246 11.6541 45.5349 12.9265C45.7471 12.9886 45.9636 12.9758 46.123 13.116L46.1198 13.1965C45.7901 13.4748 40.8026 13.1792 40.1315 13.2643C39.9867 13.2828 38.9149 13.2565 38.697 13.2402C38.6324 13.1412 38.5753 13.0386 38.5561 12.9204C38.4237 12.1084 39.0164 10.6955 39.2017 9.84839C39.3294 9.26351 39.4157 8.65982 39.3891 8.06003C39.3631 7.4677 39.2091 6.52721 38.7403 6.11872C38.5288 5.93381 38.2271 5.83905 37.9478 5.85786C37.5631 5.88306 37.1727 6.11304 36.9349 6.41187C36.2982 7.21146 36.4164 9.93925 36.5502 11.0299C36.591 11.3603 36.7163 12.7881 37.0151 12.9151C37.2075 12.9967 37.4605 12.8931 37.6373 13.0308C37.682 13.1575 37.6866 13.0997 37.6408 13.2104C37.4857 13.2569 37.3356 13.2658 37.1727 13.2686C35.9437 13.2885 34.7118 13.2831 33.4838 13.2714C33.3788 13.2707 33.2805 13.231 33.2042 13.1593C33.1885 13.0542 33.1811 13.1046 33.2411 13.0049C33.3798 12.9208 33.541 12.9201 33.7071 12.9002C33.904 12.6042 33.9775 12.4559 34.0307 12.0885C34.3196 10.0936 34.5382 8.05649 34.1447 6.0598C34.1085 5.87596 34.0297 5.39809 33.9243 5.27316C33.8256 5.15579 33.438 5.23114 33.2975 5.03129C33.2964 4.86704 33.4267 4.79958 33.5552 4.80359C34.0098 4.81764 36.6442 4.72739 36.8969 4.91481C36.9686 5.12304 36.7713 5.24661 36.9143 5.41569C37.2373 5.4812 37.9684 4.90147 38.3737 4.8257C38.5667 4.78953 38.7577 4.72689 38.9795 4.6963Z" fill="currentColor"/>
<path d="M11.635 4.75713C12.2324 4.72764 18.2744 4.74542 18.5128 4.86868L18.5139 4.95424C18.4264 5.09326 18.2747 5.16115 18.1285 5.24863C18.1133 6.41115 18.3755 7.99189 19.0421 9.04027C19.096 9.1251 19.1898 9.13468 19.2825 9.13539C19.3417 9.0598 20.175 7.2285 20.2316 7.02869C20.4294 6.32953 20.3926 5.87596 19.8683 5.34261C19.8 5.27305 19.5606 5.02196 19.5152 4.93856C19.5782 4.79333 19.6853 4.74449 19.8446 4.75344C20.7581 4.80472 21.7515 4.74428 22.6563 4.80894C23.3745 4.8603 24.6949 4.74847 25.3349 4.90477C25.6089 5.18511 25.3419 5.89229 25.297 6.29936C25.0702 8.35815 25.1208 10.7541 25.5573 12.7774C25.7576 13.0312 26.2544 12.859 26.3813 13.0872C26.2435 13.4113 25.8367 13.2899 25.5266 13.2757C25.0579 13.253 24.5891 13.2338 24.1202 13.2189C23.7822 13.2111 22.0689 13.2888 21.9369 13.1337C22.0215 12.9694 22.6508 12.7934 22.6733 12.6479C22.9699 10.736 23.3793 8.76416 23.1333 6.81894C23.1005 6.55915 22.9343 5.50477 22.7354 5.35102C22.5054 5.27848 22.3288 5.36774 22.1004 5.44539C20.8337 6.18686 20.7256 7.27144 20.1085 8.50615C19.9574 8.87134 19.7584 9.24541 19.6477 9.62409C19.5013 10.1245 20.2879 10.1788 20.4381 10.5845C20.4356 10.8861 19.9167 11.1846 19.6966 11.4369C19.2699 11.926 19.0456 12.529 18.8653 13.1433C18.8192 13.3005 18.7654 13.5397 18.6999 13.6661C18.5978 13.7083 18.6504 13.7055 18.5366 13.6615C18.3409 13.4354 18.3384 13.1234 18.2592 12.8473C17.5928 10.5238 16.8079 8.20661 15.434 6.1936C15.3098 6.01153 15.0674 5.60872 14.8993 5.50338L14.8338 5.51964C14.6772 5.7741 14.6495 6.29013 14.611 6.61274C14.3696 8.63249 14.4711 10.6654 14.8726 12.6578C14.9475 13.0297 15.5152 12.8466 15.7763 13.0152C15.8435 13.1444 15.8365 13.0805 15.819 13.2093C15.7984 13.2178 15.778 13.2264 15.7575 13.2349C14.3599 13.253 12.9595 13.1909 11.5603 13.2075C11.4251 13.2093 11.3106 13.1873 11.2087 13.1376L11.1899 13.0652C11.3562 12.8037 11.6329 13.0074 11.8745 12.8047C12.0133 12.5755 12.0798 11.8926 12.1229 11.5988C12.4029 9.68869 12.6405 7.73246 12.28 5.81598C12.2352 5.57773 12.182 5.29268 11.9445 5.16981C11.792 5.09294 11.6453 5.06558 11.5075 4.959C11.51 4.84543 11.5264 4.86836 11.635 4.75713Z" fill="currentColor"/>
<path d="M2.91244 0.014099C4.45244 -0.10199 5.13055 0.514158 6.333 1.297C6.56706 1.4494 7.62052 1.61535 7.69639 1.80505C7.64362 2.02395 7.29475 2.26699 7.10413 2.45768C7.0768 2.59996 7.00373 2.96256 7.02822 3.08568C7.11613 3.52764 7.26803 4.05822 7.3926 4.48932C7.80574 5.91926 8.18456 7.50142 8.75908 8.87063C9.31848 7.54614 9.76104 6.18437 10.1736 4.80596C10.4962 3.72826 10.9892 2.66189 10.3066 1.60502C10.1077 1.29711 9.91628 1.14936 9.62526 0.938727C9.38005 0.931594 9.26911 0.939935 9.06614 0.798932L9.0681 0.745021C9.56276 0.534492 12.3072 0.743495 13.0086 0.709424C13.1211 0.703959 13.3484 0.710454 13.4338 0.800245C13.3955 1.0337 12.5705 1.54167 12.3657 1.74006C11.9819 2.112 11.633 2.55623 11.3531 3.01108C10.9311 3.69682 9.04921 9.48355 9.17751 9.87501C9.31035 10.2803 9.82549 10.2963 10.1328 10.5021C10.2147 10.5568 10.2304 10.5969 10.2534 10.6892C10.2191 10.813 10.1471 10.8616 10.0533 10.9518C9.129 11.4618 8.60821 12.0648 8.02798 12.9456C7.86352 13.1955 7.76965 13.7033 7.51142 13.7612C7.4338 13.7069 7.39874 13.6281 7.37471 13.5376C6.48965 10.2012 5.54291 6.86437 4.5374 3.561C4.32183 3.07336 4.0953 1.77949 3.77422 1.4116C3.17642 0.726638 1.6799 0.764896 1.06304 1.42881C0.591237 1.93664 0.463897 2.19217 0.412081 2.80633C0.304971 4.07625 1.66627 4.94718 2.79696 4.97688C3.71814 5.00379 3.66427 4.34094 4.0547 3.96172C4.20603 3.94721 4.23648 3.96346 4.30508 4.08562C4.32798 4.63675 3.52753 5.27451 3.00852 5.31944C2.32643 5.37849 1.64218 5.07768 1.10272 4.68008C-1.24336 2.95085 0.531151 0.341958 2.91244 0.014099Z" fill="currentColor"/>
<path d="M29.6619 4.69761C31.0999 4.51913 33.1435 5.21723 33.349 7.02833C33.3916 7.40489 32.9263 7.61463 32.6296 7.76937C31.5986 8.30563 30.5314 8.83515 29.5018 9.38134C29.0291 9.63652 28.3005 9.8452 29.0255 10.4091C29.9461 11.0973 31.1667 11.4025 32.1036 10.5628C32.3286 10.3612 32.6406 9.77173 32.883 9.74121C33.2034 9.88743 33.1193 10.8073 33.0704 11.1058C32.9976 11.46 32.8517 11.7954 32.642 12.09C31.5429 13.6324 29.2243 13.7488 27.8103 12.6337C26.8989 11.9654 26.0628 10.7463 25.9311 9.5815C25.6666 7.24092 27.3642 5.03548 29.6619 4.69761ZM29.0827 9.08499C29.74 8.77197 30.7145 8.35958 30.9207 7.61463C31.2696 6.35686 30.3713 5.39131 29.132 5.43791C28.6053 5.57323 28.134 5.7411 27.8519 6.25465C27.4454 6.99533 27.5811 7.92304 27.7969 8.69993C27.8707 8.9622 28.107 9.56589 28.4698 9.38525C28.6713 9.28481 28.8793 9.18401 29.0827 9.08499Z" fill="currentColor"/>
<path d="M54.4263 4.77033C54.52 4.76395 54.614 4.76082 54.7081 4.76096C55.5666 4.76838 56.5912 5.0572 57.2119 5.67722C57.5377 6.00231 58.3164 7.04501 57.7794 7.44783C57.4337 7.70726 56.8957 7.9525 56.5007 8.15302L54.2861 9.277C53.9951 9.42535 53.2778 9.70537 53.2509 10.0503C53.3967 10.3456 54.07 10.8553 54.3624 11.0245C55.1744 11.4944 55.9882 11.3514 56.7002 10.7736C56.911 10.6026 57.1743 10.2956 57.422 10.2288C57.718 10.3034 57.5722 11.0068 57.5416 11.2464C56.9422 13.5117 53.9142 13.9915 52.2422 12.5975C50.3169 10.9926 50.0202 8.25949 51.6744 6.33769C52.513 5.36352 53.1295 4.89278 54.4263 4.77033ZM53.8616 9.01189C55.0594 8.47598 56.1224 7.94079 55.4424 6.36857C55.0885 5.55005 54.3766 5.48858 53.5855 5.54601C52.1109 5.90719 52.0154 7.28635 52.2873 8.55761C52.3434 8.81882 52.5936 9.54885 52.9758 9.43031C53.2459 9.32349 53.5813 9.13397 53.8616 9.01189Z" fill="currentColor"/>
<path d="M13.4224 1.61017C13.7747 1.59264 14.1214 1.63327 14.4326 1.81278C14.6999 1.96489 14.8923 2.22074 14.9645 2.51968C15.1662 3.34245 14.4819 3.95838 13.7382 4.13065C11.5866 4.18126 11.467 1.87425 13.4224 1.61017Z" fill="currentColor"/>
<path d="M24.0354 1.75146C26.0167 1.66337 26.2311 4.0157 24.4666 4.27617C23.7093 4.26421 22.892 4.07426 22.7759 3.18282C22.7303 2.85237 22.822 2.51762 23.0297 2.25652C23.3146 1.89629 23.6135 1.80661 24.0354 1.75146Z" fill="currentColor"/>
<path d="M61.213 0.0245106C62.1695 -0.113902 63.0844 0.351733 63.7728 0.971749C64.0347 1.1964 64.2547 1.43525 64.5564 1.60951C64.963 1.84445 65.4697 1.82281 65.8849 1.99316L65.9177 2.07336C65.8696 2.31399 65.5396 2.50919 65.3305 2.71823C65.3205 2.77998 65.3116 2.84173 65.3036 2.90348C65.2231 3.54018 66.0105 5.76613 66.1581 6.55473C66.2168 6.8681 66.8394 9.14764 66.9028 9.22892L67.001 9.23034C67.1746 9.0937 68.2135 4.37669 68.389 3.79003C68.5309 3.31588 67.9832 1.92395 67.6382 1.51581C67.5109 1.36498 67.0963 1.03102 67.125 0.883023C67.325 0.774068 71.2156 0.709827 71.3608 0.799973C71.2979 1.05231 70.5231 1.11335 70.4846 1.4097C70.3935 2.11063 70.8082 3.23887 70.996 3.90112L71.7568 6.61258C71.9393 7.2656 72.1206 7.91933 72.3053 8.572C72.353 8.74022 72.4343 9.19236 72.6011 9.23495C72.8586 9.0032 73.5762 4.47393 73.7663 3.79607C73.9746 3.0529 73.7228 1.77844 73.1152 1.26774C72.9793 1.15346 72.6277 0.917091 72.5627 0.822687L72.5975 0.770873C72.7945 0.684276 73.1814 0.694215 73.3985 0.719058C74.4816 0.842564 75.7189 0.62004 76.7813 0.700603C76.8664 0.759871 76.8398 0.72083 76.8627 0.823042C76.6782 0.976715 76.2152 1.04379 76.0814 1.1744C74.1189 3.093 73.782 5.95068 73.2975 8.51202C73.1786 9.14019 72.9829 9.76482 72.8819 10.3884C73.0839 10.826 73.4353 11.0222 73.8194 11.2966C73.4491 11.8406 73.1854 11.7416 72.7982 12.1313C71.9784 13.0487 71.6942 13.8721 71.2519 15L70.9963 14.847C70.978 14.1599 70.9053 13.4757 70.779 12.8C70.6383 12.0394 70.4447 11.3047 70.2591 10.5548L69.2818 6.76234C69.1445 6.24276 68.9754 5.46411 68.7709 4.95766C68.7537 4.91507 68.7117 4.92075 68.651 4.90727C68.6315 4.92288 68.6053 4.93282 68.5923 4.95411C68.5098 5.09004 67.2963 9.94476 67.2413 10.4001C67.431 10.8966 67.6048 10.9058 67.9259 11.2945C68.0024 11.3871 67.9926 11.4222 67.9748 11.5113C67.8828 11.6309 67.8149 11.6508 67.6952 11.7228C66.5433 12.4131 66.1535 13.7933 65.7508 14.9794C65.7398 15.0121 65.6558 14.994 65.6218 14.9922C65.597 14.973 65.5722 14.9542 65.5475 14.9354C65.4264 14.4009 65.3833 13.5083 65.2755 12.9998C65.1255 12.2917 64.9421 11.6898 64.7703 11.0325L63.0535 4.44802C62.9136 3.90999 62.7724 3.36344 62.6355 2.82576C62.4171 1.96796 62.1414 1.32026 61.1829 1.10803C59.2686 0.683921 58.2503 3.01989 59.1945 4.43525C59.5595 4.9747 60.1248 5.34593 60.7647 5.4666C62.0263 5.70332 62.1884 4.39479 62.4406 4.22408L62.5183 4.24253C62.7375 4.49167 62.5366 4.95944 62.3589 5.15712C61.2625 6.37621 59.5882 5.73809 58.8106 4.55804C58.0461 3.39822 58.3287 2.16706 59.108 1.14742C59.6511 0.437263 60.3603 0.131691 61.213 0.0245106Z" fill="currentColor"/>
<path d="M91.745 1.54456C91.749 1.54563 91.7532 1.54634 91.757 1.54776C92.3088 1.76318 91.7986 3.95222 92.0728 4.50906C92.4967 4.92288 96.2105 4.49061 96.5157 4.79831C96.5405 5.05029 96.3659 5.08436 96.2626 5.26323C95.8705 5.94181 96.4777 6.88763 96.7123 7.5229C96.8355 7.85722 97.1325 8.83249 97.3721 9.00391L97.4686 8.97339C97.6507 8.81333 98.4393 6.76625 98.5936 6.38402C98.3108 5.26891 97.4029 5.1234 97.2741 4.82138C97.4218 4.64144 100.807 4.63789 101.082 4.7795C101.181 4.98002 100.84 5.19829 100.768 5.39065C100.726 5.50634 100.692 5.70438 100.668 5.82931C101.028 6.79216 101.482 8.14895 101.863 9.13593C101.892 9.21117 101.97 9.2197 102.035 9.22821C102.097 9.18917 102.152 9.14268 102.185 9.07631C102.738 7.95517 103.668 6.41277 102.523 5.33138C102.34 5.15854 102 5.01125 101.954 4.79334C102.194 4.50977 104.784 4.73691 105.285 4.68652C105.404 4.67445 105.598 4.71456 105.706 4.77808C105.779 5.02403 105.185 5.17345 105.016 5.28879C103.72 6.17285 102.829 8.51876 102.295 9.98203C102.589 10.5797 102.989 10.6283 103.44 11.0297C103.152 11.4655 102.781 11.644 102.532 11.9702C102.144 12.4759 101.808 13.3426 101.589 13.9449C101.538 14.084 101.481 14.1064 101.364 14.1493C101.33 14.1411 101.297 14.1333 101.263 14.1252C101.052 13.4235 100.905 12.7116 100.682 12.0114C100.168 10.4012 99.5799 8.80659 98.9684 7.23188C98.9507 7.1861 98.8538 7.12328 98.8158 7.09773C98.3669 7.71668 97.8888 9.12493 97.6116 9.89436C97.7905 10.1904 97.9452 10.3909 98.204 10.6209C98.4464 10.8366 98.7739 10.8214 98.8879 11.0858C98.781 11.3388 98.3392 11.7019 98.134 11.9595C97.7067 12.4969 97.5417 12.8291 97.2904 13.4697C97.2184 13.6531 96.9998 14.2192 96.8347 14.3037C96.6509 14.1323 96.3102 12.9015 96.2098 12.581C95.6728 10.9215 95.1042 9.27222 94.5048 7.63434C94.2826 7.04236 94.1219 6.43015 93.7929 5.88431C93.6069 5.5759 93.3386 5.29802 93.0153 5.1337C92.8247 5.03645 92.4987 4.93105 92.2877 5.02013C92.1836 5.06413 92.0945 5.14186 92.0494 5.24691C91.9684 5.43643 92.0159 11.1759 92.0676 11.6838C92.0977 11.9805 92.2082 12.3038 92.3248 12.5781C92.4094 12.7772 92.5431 12.9536 92.7517 13.0306C92.9319 13.0974 93.1242 13.1027 93.2978 13.0147C93.4699 12.9277 93.6069 12.7641 93.7116 12.6062C94.1726 11.9088 94.0942 11.007 93.893 10.2372C93.8319 10.0047 93.7109 9.7996 93.6477 9.57105C93.6243 9.48587 93.6161 9.38508 93.653 9.30274C93.674 9.25625 93.7041 9.26228 93.7485 9.2488C93.8195 9.26902 93.9409 9.31765 93.9849 9.37514C95.8368 11.7942 93.1828 15.4216 90.4372 13.3639C89.5236 12.6793 89.6859 11.396 89.6717 10.3646C89.6487 8.69337 89.7003 7.00332 89.6684 5.33138C89.6611 4.95057 88.9233 5.19758 88.6695 4.98889C88.657 4.94489 88.6311 4.83877 88.675 4.81251C89.1033 4.55662 89.6888 4.40046 90.0959 4.08779C90.5016 3.77619 91.2982 3.06 91.4521 2.57555C91.5716 2.19936 91.507 2.00132 91.745 1.54456Z" fill="currentColor"/>
<path d="M125.545 0.209776C126.177 0.17535 127.087 0.155118 127.724 0.215807C127.774 0.22042 127.9 0.276141 127.903 0.300629C127.937 0.599812 127.823 1.1492 127.784 1.44306C127.653 2.45063 127.742 3.45465 127.708 4.45335C127.666 5.70225 127.669 6.91567 127.671 8.16209L127.669 10.2418C127.666 11.0865 127.608 11.962 128.019 12.7403C128.238 13.1542 128.745 12.8819 128.871 13.1272C128.371 13.1822 127.713 13.1896 127.198 13.2092C126.73 13.2273 126.088 13.2645 125.633 13.2436C125.311 13.0491 125.704 12.5558 125.516 12.257L125.444 12.242C125.129 12.3524 124.955 12.9192 124.642 13.1265C124.214 13.409 123.871 13.5023 123.37 13.5747C122.059 13.5786 121.17 12.4756 120.835 11.3019C120.345 9.58418 120.435 7.85084 121.305 6.27294C121.793 5.38816 122.344 4.69539 123.348 4.39018C124.153 4.13074 124.822 4.58076 125.512 4.96015L125.765 4.7174C125.877 3.26478 125.912 1.74154 125.022 0.527413C124.84 0.486954 124.617 0.497247 124.505 0.342509L124.545 0.291756C124.846 0.199837 125.225 0.21368 125.545 0.209776ZM124.222 11.6174C125.007 11.643 125.613 11.2192 125.633 10.3777C125.615 9.69349 125.639 8.98688 125.611 8.30476C125.587 7.69503 125.662 6.95045 125.567 6.3606C125.443 5.59898 124.901 4.88881 124.088 4.86468C123.961 4.86113 123.834 4.86717 123.708 4.88278C123.028 5.08933 122.82 5.54964 122.596 6.16859C122.025 7.74294 122.074 11.199 124.222 11.6174Z" fill="currentColor"/>
<path d="M77.9025 4.7795C78.4863 4.68509 79.3653 4.92146 79.8862 5.20503C80.8416 5.72532 81.2046 6.39076 81.5067 7.4033C81.0693 7.85899 80.4714 8.05561 79.9788 8.38247C79.2583 8.87898 78.5154 9.29955 77.7747 9.76944C76.7788 10.4065 76.1122 10.4061 77.4193 11.3456C78.428 12.0706 79.5458 11.6944 80.4091 10.9264C80.502 10.8437 80.7135 10.5751 80.8078 10.5577C81.2129 10.6922 81.0678 11.4542 80.9987 11.7764C80.3976 14.0528 77.7877 14.6281 75.9301 13.4132C75.021 12.8184 74.2146 11.3278 74.0653 10.262C73.7402 7.94204 75.485 5.12162 77.9025 4.7795ZM76.4297 10.009L77.081 9.64096C77.2688 9.53485 77.7638 9.2236 77.9337 9.16184C79.7055 8.52053 79.4039 5.43785 77.3769 5.55958C76.9368 5.63233 76.4586 5.79168 76.1808 6.17036C75.5281 7.06082 75.475 9.31835 76.4297 10.009Z" fill="currentColor"/>
<path d="M84.8861 4.39159C85.8319 4.29683 86.9255 4.63861 87.7504 5.23129C88.903 6.05964 88.4601 7.54455 87.0738 7.69716C86.3508 7.77701 85.5319 7.21662 85.5142 6.42022C85.5015 5.84989 85.8019 5.58762 86.1823 5.20468C86.1669 4.95128 85.8707 4.87426 85.6596 4.85545C85.1462 4.80896 84.3012 4.92821 83.9071 5.28914C83.2132 5.92513 83.5194 6.85142 84.2917 7.22549C85.4408 7.78198 86.5728 8.14611 87.7241 8.64688C88.3302 8.91022 88.7789 9.59376 88.8812 10.2187C89.1271 11.3534 88.6719 12.2864 87.7993 13.0122C86.9648 13.7057 85.9219 14.0254 84.8237 13.9108C83.6466 13.805 82.0054 13.092 81.7905 11.7519C81.6802 10.9928 82.3251 10.1197 83.1015 10.1258C84.0449 10.1332 84.6354 10.6915 84.6351 11.6227C84.635 12.2055 84.2238 12.5196 83.8622 12.8958C84.1789 13.3997 84.8334 13.5211 85.4024 13.4924C85.8909 13.4675 86.653 13.273 86.9734 12.8798C87.1588 12.652 87.317 12.2609 87.2692 11.9514C86.9138 10.5463 85.0809 9.96215 83.8619 9.45748C82.9042 9.13274 81.9453 8.43252 81.8396 7.32131C81.6643 5.48008 83.3006 4.53746 84.8861 4.39159Z" fill="currentColor"/>
<path d="M107.433 4.31139C107.592 4.29009 107.786 4.26773 107.872 4.4246C107.823 4.76957 107.082 5.10673 106.803 5.37042C106.411 5.73455 106.125 6.19664 105.972 6.70876C105.537 8.14647 105.997 9.20337 106.661 10.4718C107.162 11.38 108 12.4635 109.022 12.7975C109.757 13.0377 110.451 12.4962 110.617 11.7789C110.932 10.4267 110.463 9.27968 109.811 8.12234C109.171 6.98594 108.358 6.64346 107.111 6.51356C107.023 6.50327 106.893 6.44578 106.845 6.35776C106.849 6.15724 106.871 6.10436 106.977 5.93046C107.575 4.95057 109.069 4.65813 110.03 5.28702C110.722 5.78991 111.171 6.32937 111.506 7.14103C111.953 8.28417 112.072 10.4537 111.574 11.5936C110.751 13.476 108.509 14.501 106.618 13.5616C104.03 12.2761 103.448 9.18492 104.605 6.71976C105.244 5.35693 106.071 4.79903 107.433 4.31139Z" fill="currentColor"/>
<path d="M115.962 4.03456C116.089 4.06082 116.128 4.07325 116.177 4.18433C116.097 4.54775 115.359 4.87391 115.053 5.15251C114.775 5.40768 114.546 5.71148 114.377 6.04899C113.956 6.87875 113.885 7.84267 114.181 8.7246C114.672 10.1797 115.54 11.8016 116.957 12.5192C117.745 12.9178 118.536 12.6371 118.879 11.8204C119.28 10.865 118.968 9.84574 118.603 8.93329C118.153 7.83522 117.421 6.77016 116.176 6.54834C115.845 6.44861 114.803 6.55047 115.222 5.8971C116.025 4.64322 117.269 4.55769 118.449 5.26998C119.25 5.80837 119.745 6.77654 119.996 7.71242C120.619 10.0356 119.787 12.9849 117.249 13.7003C116.319 13.963 115.137 13.6595 114.328 13.1701C113.437 12.6317 112.579 11.4226 112.379 10.3895C111.879 7.79902 113.275 4.65174 115.962 4.03456Z" fill="currentColor"/>
<path d="M136.371 11.25L140.004 7.33887L136.679 3.75H137.616L140.473 6.84082L143.344 3.75H144.193L140.897 7.29492L144.56 11.25H143.622L140.429 7.80762L137.221 11.25H136.371Z" fill="currentColor"/>
<g clip-path="url(#clip0_6_2915)">
<path d="M154.642 3.47153C154.787 3.45914 155.022 3.46089 155.167 3.46485C155.947 3.4861 155.872 4.30653 156.325 4.73178C156.587 5.0229 156.982 5.18729 157.272 5.42173C157.772 5.82654 158.64 6.37909 158.572 7.10038C158.564 7.50188 158.122 7.8411 157.97 8.14353C157.533 9.01266 157.054 9.66085 156.275 10.271C156.1 10.408 155.901 10.6298 155.706 10.7895C155.422 11.1239 153.993 11.1098 153.698 10.85C153.158 10.3753 152.262 9.45768 152.144 8.73389C151.991 7.79992 152.045 6.84541 152.313 5.93641C152.51 5.4099 152.881 5.02037 153.23 4.59756C153.696 4.0331 153.865 3.6031 154.642 3.47153ZM155.554 8.60601C155.911 8.32955 156.57 7.7739 156.622 7.30512C156.659 6.9731 156.608 6.5426 156.38 6.28172C156.212 6.08959 155.982 5.85313 155.706 5.86348C155.243 6.62273 154.725 7.76746 154.939 8.67207C154.961 8.76725 154.985 8.82423 155.067 8.87772C155.232 8.91896 155.43 8.70885 155.554 8.60601Z" fill="currentColor"/>
<path d="M162.337 2.03967C163.007 1.96366 163.429 2.41049 163.441 3.04768C163.448 3.46063 163.352 3.85007 163.302 4.25834C163.202 5.06114 163.329 5.83278 163.366 6.63214C163.383 6.83534 163.431 7.04809 163.436 7.25121C163.469 8.68592 163.511 10.1319 163.474 11.5661C163.41 12.1622 163.319 12.7349 163.267 13.3325C163.202 14.0745 163.121 14.4799 162.391 14.7261C162.285 14.7372 162.195 14.7016 162.097 14.6705C161.223 14.3913 161.369 13.253 161.315 12.5435C161.222 11.2774 161.272 10.0025 161.249 8.73264C161.237 8.04648 161.087 7.3608 161.078 6.68628C161.093 5.7676 161.02 4.84607 161.079 3.9288C161.158 2.70048 161.213 2.48632 162.337 2.03967Z" fill="currentColor"/>
<path d="M168.19 10.4632C169.384 10.3053 168.604 11.9632 168.708 12.1218C168.736 12.1275 168.764 12.1326 168.792 12.1371C168.929 12.1581 169.499 11.8907 169.719 11.8452C170.874 11.6064 172.169 11.827 173.337 11.9108C173.757 11.9406 174.151 11.9494 174.545 12.0016C175.12 12.0818 175.695 12.159 176.27 12.2334C176.546 12.2694 177.145 12.3615 177.397 12.3391C177.924 12.2923 178.82 12.0789 179.246 11.7712C179.739 11.4555 179.512 11.1564 179.578 10.7755C179.684 10.1651 180.444 10.9025 180.577 11.1354C180.807 11.5399 180.811 11.7472 180.719 12.1743C180.555 12.9255 180.299 13.1311 179.691 13.5155C179.631 13.5511 179.584 13.595 179.527 13.6346C178.061 14.6598 176.18 14.6062 174.507 14.2658C173.037 13.967 171.548 13.8738 170.068 14.0021C168.773 14.1142 167.366 15.7929 166.549 13.8773C166.475 13.5358 166.565 13.1385 166.641 12.8022C166.872 11.7729 167.016 10.7645 168.19 10.4632Z" fill="currentColor"/>
<path d="M166.346 3.57211C167.14 3.57786 167.981 3.50793 168.783 3.52723C169.101 3.53486 169.514 3.49258 169.823 3.56636C170.273 3.64445 170.484 3.82858 170.749 4.1784C170.795 4.48748 170.779 4.60122 170.722 4.90882C170.566 5.04299 170.274 5.40373 170.175 5.58532C169.524 6.79126 170.99 8.07417 171.377 9.13661C171.568 9.66045 171.478 10.1288 171.501 10.6405C171.289 10.7693 170.436 11.0495 170.154 11.0748C170.044 11.0845 169.903 11.0557 169.792 11.0304C169.625 10.5216 169.272 9.68499 168.918 9.29836C168.616 8.96764 168.329 8.98398 167.918 8.96562C167.646 9.3643 167.352 9.71378 167.143 10.1546C166.953 10.599 166.464 11.5351 165.843 11.4141C165.457 11.339 165.335 11.4249 164.972 11.4227C164.871 11.3345 164.85 10.8193 164.884 10.6762C165.118 9.69957 165.642 8.76328 166.229 7.95108C166.52 7.54966 166.949 7.22512 167.147 6.74268C167.244 6.51287 167.363 6.24889 167.485 6.03449C167.595 5.839 167.808 5.66652 167.945 5.47583L167.931 5.44349C167.759 5.33259 166.521 5.5246 166.219 5.52052C165.569 5.55818 164.891 4.91044 164.893 4.26187C164.895 3.5547 165.901 3.55315 166.346 3.57211Z" fill="currentColor"/>
<path d="M176.044 2.80591C176.401 2.76458 177.038 3.39006 177.091 3.71736C177.221 4.51459 177.171 5.36191 177.165 6.1681C177.161 6.64773 177.182 7.13935 177.135 7.61623C177.05 8.21298 176.897 8.79215 176.804 9.38814C176.757 9.68942 176.961 10.1585 176.807 10.4275C176.713 10.5918 176.516 10.8263 176.388 10.973C176.243 11.1402 176.102 11.4204 175.937 11.5463C175.767 11.5349 175.414 11.2573 175.305 11.1404C174.736 10.5301 174.778 9.02029 174.777 8.24587C174.773 7.57912 174.894 7.17386 174.844 6.44506C174.302 6.47368 173.744 6.46347 173.2 6.49297C172.923 6.50347 172.631 6.49822 172.357 6.53762C171.865 6.6084 171.492 7.11147 171.016 6.69202C170.612 6.33524 170.429 5.78437 171.089 5.57636C171.359 5.49146 171.666 5.49957 171.942 5.43043C172.412 5.31722 172.85 5.09757 173.345 5.08944C173.917 5.05212 174.467 5.13988 175.008 5.11947C175.02 4.4216 175.043 3.87892 175.172 3.18417C175.428 3.0173 175.749 2.88675 176.044 2.80591Z" fill="currentColor"/>
<path d="M168.619 0.451416C168.86 0.459501 169.271 0.467751 169.445 0.625918C169.969 1.10461 169.872 1.88796 169.459 2.40259C169.222 2.69829 168.844 2.75496 168.503 2.79464C167.567 2.70616 166.816 1.67687 167.568 0.897796C167.92 0.532693 168.106 0.476958 168.619 0.451416Z" fill="currentColor"/>
<path d="M186.54 11.4089C186.184 11.4072 185.068 11.2222 185.011 11.7918C184.996 11.943 185.178 12.1542 185.285 12.2521C185.732 12.6656 186.556 12.7474 187.143 12.7357C188.192 12.7149 188.999 12.4961 189.747 11.7243C190.589 10.8558 190.893 9.67628 191.874 8.92C192.432 8.48997 192.794 8.34909 193.513 8.3347C193.665 8.33167 194.223 8.34531 194.292 8.48997C194.272 8.58048 194.205 8.71928 194.145 8.79048C194.075 8.79692 194.097 8.74295 193.996 8.75355L193.97 8.78896C193.989 8.81131 193.997 8.81945 194.01 8.84653C193.815 9.49942 193.382 9.71529 193.024 10.2449C192.921 10.3975 192.833 10.7283 192.77 10.9156L192.512 11.6713C192.418 11.9529 192.287 12.1756 192.159 12.4255C191.829 13.0725 191.295 13.7245 190.63 14.0519C190.387 14.1714 189.938 14.4418 189.697 14.5258C188.89 14.8085 188.099 14.9659 187.24 14.911C186.95 14.8924 186.687 14.9006 186.4 14.8055C186.1 14.7063 185.71 14.6198 185.424 14.4952C185.007 14.2992 184.596 13.9693 184.258 13.6628C184.137 13.5529 183.923 13.2486 183.856 13.1074C183.49 12.3312 183.719 11.5414 184.509 11.1514C185.096 10.8613 185.648 10.826 186.281 10.7442C186.494 10.7196 187.154 10.7259 187.282 10.6492C187.303 10.574 187.251 10.4719 187.211 10.4163C186.79 9.8325 186.703 9.37672 187.177 8.79862C187.263 8.6941 187.659 8.34227 187.661 8.23927C187.206 7.82666 185.945 8.2849 185.773 7.5254C185.765 7.383 185.851 7.21751 185.952 7.12359C186.714 6.41408 188.218 6.56291 188.93 7.24932C189.545 7.84276 189.418 8.57121 188.754 9.03285C188.656 9.10045 188.429 9.28791 188.415 9.40209C188.408 9.48901 188.521 9.64882 188.569 9.724C188.976 10.2909 189.06 10.823 188.526 11.3471C188.481 11.3916 188.399 11.4087 188.336 11.4072C188.112 11.4786 186.815 11.4441 186.54 11.4089Z" fill="currentColor"/>
<path d="M182.69 1.51042C183.548 1.47406 183.681 1.97074 183.841 2.67003C183.865 2.77625 183.918 3.02412 183.9 3.12599C183.729 4.04228 182.719 4.44258 182.115 5.047C181.965 5.19602 181.824 5.29354 181.714 5.45865L181.71 5.46585C181.805 5.62661 182.008 5.83926 182.137 5.98487C182.347 5.84134 182.65 5.48232 182.839 5.29619C183.138 5.00098 183.435 4.70691 183.726 4.403C183.967 4.15059 184.268 3.91257 184.493 3.64539C184.645 3.46323 184.772 3.26195 184.87 3.04665C184.984 2.79841 185.06 2.5922 185.105 2.32237C185.126 2.19626 185.14 1.83762 185.174 1.74522C185.361 1.66247 185.588 1.74995 185.746 1.85504C186.423 2.30533 186.481 3.01522 186.388 3.74783C186.263 4.73343 185.643 5.33709 184.964 6.00002C184.848 6.1142 184.529 6.37778 184.452 6.48912L184.448 6.49575C184.567 6.69628 184.788 6.91763 184.939 7.10566C185.106 7.31319 185.244 7.50842 185.393 7.72826C185.677 8.15355 185.68 8.24425 185.733 8.76706C185.738 8.82027 185.723 8.83636 185.693 8.86988C185.622 8.89468 185.529 8.87045 185.451 8.84166C184.794 8.59948 184.65 7.81347 184.182 7.35845C184.109 7.28744 184.059 7.16644 183.962 7.13028C183.855 7.13387 183.762 7.23499 183.678 7.28896C183.284 7.54307 183.164 7.74587 182.994 8.16472C182.874 8.46049 182.353 9.43302 181.947 9.34345C181.082 9.15221 181.362 8.06569 181.46 7.45597C181.489 7.27381 181.507 7.07101 181.529 6.88298C181.455 6.72998 181.238 6.34938 181.067 6.36737C180.541 6.42304 179.967 7.55235 179.372 7.16038C178.788 6.68889 179.08 5.67811 179.236 5.05608C179.404 4.64859 179.814 4.21706 180.095 3.89004C180.705 3.17844 181.552 2.72873 182.069 1.93874C182.228 1.69617 182.396 1.56306 182.69 1.51042Z" fill="currentColor"/>
<path d="M187.423 0.271064C187.407 0.282236 187.3 0.375399 187.283 0.390169C187.077 1.18129 187.644 1.10479 187.804 1.76034C187.869 2.02297 187.839 2.48046 187.818 2.75237C187.694 3.3015 187.702 3.70312 187.707 4.26475C187.715 5.12006 187.736 6.41241 188.766 6.70496C188.934 6.75173 189.315 6.76499 189.396 6.5815C189.387 6.38344 189.105 6.18461 189.152 6.0905C189.261 5.87161 189.393 5.59288 189.499 5.36944C189.553 5.34596 190.03 3.25927 190.03 3.25927C190.004 3.22538 190.029 3.11991 190.033 3.07351C190.116 2.11519 190.263 0.934942 189.265 0.373316C189.057 0.255916 188.86 0.110681 188.609 0.0798162C188.336 0.068455 187.66 0.112385 187.423 0.271064Z" fill="currentColor"/>
<path d="M191.788 4.16109C191.607 4.22297 191.299 4.3326 191.126 4.26396C190.602 4.05622 190.203 3.70134 190.615 2.94898C190.76 2.68503 191.139 2.33821 191.381 2.21265C192.1 2.01511 193.208 2.78744 192.87 3.57729C192.711 3.94743 192.161 3.99781 191.788 4.16109Z" fill="currentColor"/>
</g>
<defs>
<clipPath id="clip0_6_2915">
<rect width="42.3438" height="15" fill="white" transform="translate(152.06)"/>
</clipPath>
</defs>
</svg>
