<svg width="431" height="156" viewBox="0 0 431 156" fill="none" xmlns="http://www.w3.org/2000/svg">
<path d="M130.149 15.6805C131.787 15.516 133.039 15.7834 134.432 16.4789C143.745 21.1242 139.245 32.538 135.995 39.6751C135.759 40.1941 135.845 41.3898 136.038 41.9621C136.455 43.159 137.696 43.3284 138.793 43.2929C140.548 43.2348 141.612 43.5832 141.917 41.4277C142.988 33.8414 143.845 25.953 141.913 18.4305C141.714 17.6564 139.589 17.4431 139.183 16.8601L139.384 16.5971C141.223 15.8138 148.026 16.605 150.375 16.5478C151.151 16.5288 150.812 17.8332 151.183 18.3591C152.589 18.6601 157.134 13.4542 162.834 16.6317C164.422 17.5241 165.742 18.8253 166.657 20.4001C170.179 26.5194 165.778 34.5868 163.528 40.4454C163.418 40.7333 163.483 41.3886 163.575 41.686C164.078 43.3237 165.759 43.1507 166.904 43.7846L166.941 43.9884C166.05 44.9341 163.13 44.2515 161.808 44.2894C161.073 44.3096 157.129 44.5288 156.97 43.7301C156.427 41.007 157.942 37.7223 158.643 35.075C159.567 30.9216 160.758 25.4257 158.687 21.4726C157.362 18.945 154.865 18.8383 152.655 20.1963C151.78 20.8753 151.241 21.5235 150.832 22.5509C149.072 26.9733 150.332 38.912 152.036 43.1601C152.745 43.3675 153.468 43.3249 154 43.7929L153.989 44.0619C152.888 44.991 136.236 44.0039 133.995 44.2883C133.512 44.3499 129.933 44.2622 129.205 44.2077C128.99 43.8771 128.799 43.5346 128.735 43.14C128.293 40.4288 130.272 35.7113 130.89 32.8828C131.317 30.9299 131.605 28.9143 131.516 26.9116C131.43 24.9339 130.915 21.7937 129.35 20.4298C128.644 19.8124 127.636 19.496 126.704 19.5588C125.419 19.6429 124.116 20.4108 123.322 21.4086C121.196 24.0783 121.591 33.1861 122.037 36.8276C122.174 37.9308 122.592 42.698 123.59 43.1222C124.232 43.3948 125.077 43.0488 125.667 43.5085C125.816 43.9316 125.832 43.7384 125.679 44.1081C125.161 44.2634 124.66 44.293 124.116 44.3025C120.012 44.3688 115.899 44.3511 111.799 44.312C111.448 44.3096 111.12 44.1769 110.865 43.9375C110.813 43.5867 110.788 43.755 110.989 43.422C111.452 43.1412 111.99 43.1388 112.544 43.0725C113.202 42.0842 113.447 41.5889 113.625 40.3624C114.59 33.7016 115.32 26.8998 114.006 20.2331C113.885 19.6192 113.622 18.0237 113.27 17.6065C112.94 17.2147 111.646 17.4662 111.177 16.799C111.173 16.2506 111.608 16.0253 112.037 16.0387C113.555 16.0856 122.351 15.7843 123.195 16.4101C123.434 17.1053 122.776 17.5179 123.253 18.0824C124.331 18.3012 126.773 16.3655 128.126 16.1125C128.77 15.9918 129.408 15.7826 130.149 15.6805Z" fill="white"/>
<path d="M38.8481 15.8836C40.8428 15.7851 61.0164 15.8445 61.8124 16.256L61.8159 16.5417C61.5237 17.0059 61.0174 17.2326 60.529 17.5247C60.4783 21.4062 61.3539 26.6841 63.5797 30.1846C63.7595 30.4678 64.0726 30.4998 64.3821 30.5021C64.5799 30.2497 67.3623 24.1352 67.5511 23.4681C68.2115 21.1336 68.0887 19.6192 66.3383 17.8384C66.1102 17.6062 65.3109 16.7678 65.1591 16.4893C65.3697 16.0044 65.7272 15.8414 66.2592 15.8712C69.3091 16.0425 72.626 15.8407 75.6471 16.0566C78.045 16.228 82.4536 15.8547 84.5908 16.3765C85.5056 17.3125 84.614 19.6737 84.4642 21.0329C83.7068 27.907 83.8757 35.9069 85.3334 42.6625C86.002 43.5097 87.6607 42.935 88.0844 43.6969C87.6244 44.7788 86.2662 44.3736 85.2306 44.3262C83.6659 44.2503 82.1006 44.1863 80.5348 44.1366C79.4063 44.1105 73.6859 44.37 73.2452 43.8522C73.5274 43.3035 75.6287 42.7158 75.704 42.2299C76.6943 35.8464 78.0611 29.2626 77.2398 22.7677C77.1302 21.9003 76.5752 18.3799 75.9112 17.8665C75.1431 17.6243 74.5535 17.9223 73.791 18.1816C69.5617 20.6573 69.2005 24.2786 67.1402 28.4012C66.6359 29.6205 65.9713 30.8695 65.6016 32.1339C65.1129 33.8047 67.7391 33.986 68.2408 35.3404C68.2325 36.3477 66.4999 37.3442 65.7649 38.1868C64.3402 39.8197 63.5914 41.833 62.9893 43.8842C62.8353 44.4091 62.6556 45.2078 62.4372 45.6297C62.0962 45.7707 62.2719 45.7612 61.8918 45.6143C61.2384 44.8594 61.23 43.8178 60.9657 42.8959C58.7404 35.1378 56.1198 27.401 51.5325 20.6798C51.118 20.0719 50.3085 18.7269 49.7471 18.3752L49.5285 18.4295C49.0058 19.2791 48.9133 21.0021 48.7847 22.0793C47.9785 28.823 48.3177 35.6106 49.6581 42.2631C49.9083 43.505 51.8035 42.8935 52.6756 43.4564C52.9 43.8877 52.8765 43.6744 52.8179 44.1046C52.7494 44.133 52.681 44.1615 52.6126 44.1899C47.9463 44.2503 43.2706 44.043 38.5986 44.0987C38.1472 44.1046 37.765 44.0311 37.4248 43.8652L37.362 43.6235C37.9172 42.7501 38.8412 43.4303 39.6478 42.7537C40.1113 41.9882 40.3331 39.7083 40.477 38.7271C41.4122 32.3495 42.2055 25.8179 41.0016 19.419C40.852 18.6235 40.6745 17.6717 39.8816 17.2615C39.3724 17.0048 38.8826 16.9134 38.4224 16.5576C38.4309 16.1784 38.4856 16.2549 38.8481 15.8836Z" fill="white"/>
<path d="M9.72435 0.0470752C14.8662 -0.340533 17.1304 1.71672 21.1452 4.33056C21.9267 4.83939 25.4441 5.39349 25.6975 6.02687C25.5213 6.75776 24.3564 7.56924 23.72 8.20593C23.6287 8.68099 23.3847 9.89169 23.4665 10.3028C23.76 11.7784 24.2672 13.55 24.6831 14.9894C26.0626 19.7638 27.3274 25.0465 29.2457 29.6181C31.1135 25.1958 32.5911 20.649 33.9686 16.0466C35.0457 12.4483 36.6919 8.88777 34.4127 5.359C33.7487 4.33091 33.1094 3.8376 32.1378 3.13431C31.319 3.1105 30.9486 3.13835 30.2709 2.66755L30.2774 2.48755C31.9291 1.78462 41.0926 2.48245 43.4345 2.3687C43.8101 2.35045 44.569 2.37213 44.8542 2.67194C44.7263 3.45142 41.9716 5.14749 41.288 5.8099C40.0063 7.05176 38.8416 8.535 37.9068 10.0537C36.4979 12.3433 30.2144 31.6646 30.6428 32.9716C31.0863 34.3249 32.8063 34.3782 33.8325 35.0655C34.1058 35.248 34.1581 35.3819 34.2349 35.69C34.1206 36.1036 33.88 36.2659 33.5671 36.5669C30.4808 38.2697 28.7419 40.283 26.8046 43.2241C26.2555 44.0584 25.9421 45.7541 25.0799 45.9472C24.8207 45.7659 24.7036 45.5029 24.6234 45.2007C21.6683 34.0606 18.5072 22.9194 15.1499 11.8898C14.4302 10.2616 13.6738 5.94155 12.6017 4.71319C10.6057 2.42617 5.60902 2.55391 3.5494 4.77066C1.97408 6.46626 1.5489 7.31944 1.3759 9.37006C1.01827 13.6102 5.56351 16.5181 9.33876 16.6173C12.4145 16.7071 12.2346 14.4939 13.5382 13.2278C14.0435 13.1793 14.1452 13.2336 14.3742 13.6415C14.4507 15.4816 11.778 17.611 10.0451 17.7611C7.7677 17.9582 5.48306 16.9538 3.68188 15.6263C-4.15146 9.85259 1.77346 1.14176 9.72435 0.0470752Z" fill="white"/>
<path d="M99.038 15.6849C103.84 15.0889 110.663 17.4198 111.349 23.4669C111.491 24.7242 109.937 25.4245 108.947 25.9411C105.504 27.7316 101.941 29.4997 98.5035 31.3233C96.9251 32.1754 94.4924 32.8721 96.9133 34.7551C99.9871 37.0527 104.062 38.0718 107.191 35.2682C107.942 34.5951 108.984 32.6268 109.793 32.5249C110.863 33.0131 110.582 36.0846 110.419 37.0812C110.176 38.2638 109.689 39.3836 108.988 40.3671C105.318 45.5171 97.5769 45.9058 92.8559 42.1825C89.8126 39.9512 87.0209 35.8808 86.5814 31.9917C85.6982 24.1767 91.3664 16.813 99.038 15.6849ZM97.1041 30.3339C99.2987 29.2887 102.553 27.9118 103.241 25.4245C104.406 21.2249 101.407 18.001 97.2688 18.1566C95.5103 18.6085 93.9366 19.1689 92.9946 20.8836C91.6373 23.3567 92.0904 26.4542 92.8109 29.0482C93.0574 29.9239 93.8466 31.9395 95.0576 31.3364C95.7307 31.001 96.4251 30.6645 97.1041 30.3339Z" fill="white"/>
<path d="M181.724 15.9277C182.037 15.9063 182.351 15.8959 182.665 15.8964C185.531 15.9211 188.952 16.8855 191.025 18.9556C192.113 20.0411 194.712 23.5226 192.92 24.8675C191.765 25.7338 189.969 26.5526 188.65 27.2221L181.256 30.9749C180.284 31.4703 177.889 32.4052 177.799 33.557C178.286 34.5429 180.534 36.2446 181.511 36.8098C184.222 38.3787 186.939 37.9012 189.316 35.972C190.02 35.4009 190.899 34.3758 191.726 34.1531C192.715 34.4019 192.228 36.7506 192.126 37.5504C190.124 45.1142 180.014 46.7163 174.431 42.0617C168.003 36.7032 167.012 27.5776 172.535 21.1609C175.336 17.9082 177.394 16.3365 181.724 15.9277ZM179.839 30.0898C183.838 28.3004 187.387 26.5135 185.116 21.264C183.935 18.5311 181.558 18.3258 178.917 18.5176C173.993 19.7235 173.674 24.3284 174.582 28.573C174.769 29.4451 175.605 31.8826 176.881 31.4869C177.783 31.1302 178.902 30.4974 179.839 30.0898Z" fill="white"/>
<path d="M44.8161 5.37619C45.9925 5.31765 47.1498 5.45333 48.1891 6.05269C49.0814 6.56058 49.724 7.41484 49.9648 8.41295C50.6385 11.1601 48.3534 13.2166 45.8704 13.7918C38.6865 13.9608 38.2872 6.25794 44.8161 5.37619Z" fill="white"/>
<path d="M80.2517 5.84793C86.8672 5.55382 87.5828 13.408 81.6916 14.2777C79.1628 14.2377 76.4342 13.6035 76.0465 10.6271C75.8943 9.52376 76.2005 8.40608 76.8938 7.53429C77.8452 6.33153 78.843 6.03208 80.2517 5.84793Z" fill="white"/>
<path d="M204.385 0.0818383C207.579 -0.380306 210.634 1.1744 212.932 3.24457C213.806 3.99467 214.541 4.79216 215.548 5.37399C216.906 6.15845 218.598 6.08617 219.984 6.65496L220.094 6.92275C219.933 7.72617 218.831 8.37792 218.133 9.07588C218.1 9.28206 218.07 9.48825 218.043 9.69444C217.774 11.8203 220.404 19.2525 220.896 21.8856C221.092 22.9319 223.171 30.5431 223.383 30.8144L223.71 30.8192C224.29 30.3629 227.759 14.6133 228.345 12.6545C228.819 11.0714 226.99 6.42388 225.838 5.06115C225.413 4.55753 224.029 3.44246 224.124 2.94832C224.792 2.58453 237.783 2.37004 238.267 2.67103C238.058 3.51355 235.471 3.71738 235.342 4.70684C235.038 7.04718 236.422 10.8142 237.05 13.0254L239.59 22.0787C240.199 24.2591 240.804 26.4418 241.421 28.621C241.58 29.1827 241.852 30.6924 242.409 30.8346C243.269 30.0608 245.665 14.938 246.299 12.6747C246.995 10.1933 246.154 5.93804 244.125 4.23284C243.672 3.85128 242.497 3.06207 242.281 2.74687L242.397 2.57387C243.054 2.28473 244.346 2.31791 245.071 2.40086C248.687 2.81324 252.819 2.07025 256.366 2.33924C256.65 2.53713 256.561 2.40678 256.638 2.74805C256.022 3.26115 254.476 3.48512 254.029 3.92119C247.477 10.3272 246.352 19.8687 244.734 28.4208C244.337 30.5182 243.684 32.6038 243.346 34.6858C244.021 36.1469 245.194 36.8022 246.477 37.7181C245.24 39.5347 244.36 39.2041 243.067 40.5052C240.33 43.5684 239.381 46.3176 237.904 50.0835L237.051 49.5727C236.989 47.2786 236.747 44.994 236.325 42.7378C235.855 40.1983 235.209 37.7454 234.589 35.2415L231.326 22.5788C230.867 20.844 230.303 18.2441 229.62 16.5531C229.563 16.4109 229.422 16.4299 229.22 16.3849C229.155 16.437 229.067 16.4702 229.024 16.5413C228.748 16.9951 224.696 33.2045 224.513 34.7249C225.146 36.3827 225.727 36.4135 226.799 37.711C227.054 38.0203 227.021 38.1376 226.962 38.4351C226.655 38.8344 226.428 38.9008 226.028 39.1413C222.182 41.4461 220.881 46.0545 219.536 50.0147C219.5 50.1238 219.219 50.0633 219.106 50.0574C219.023 49.9934 218.94 49.9306 218.857 49.8678C218.453 48.0832 218.309 45.103 217.949 43.4049C217.448 41.0408 216.836 39.0311 216.262 36.8365L210.53 14.8515C210.063 13.0551 209.592 11.2302 209.135 9.43493C208.405 6.57082 207.485 4.40822 204.285 3.6996C197.893 2.28354 194.493 10.0831 197.645 14.8088C198.864 16.61 200.752 17.8495 202.888 18.2524C207.101 19.0428 207.642 14.6738 208.484 14.1038L208.743 14.1654C209.475 14.9972 208.804 16.5591 208.211 17.2191C204.55 21.2895 198.96 19.1589 196.364 15.2188C193.811 11.3463 194.755 7.23559 197.357 3.83113C199.17 1.45998 201.538 0.439704 204.385 0.0818383Z" fill="white"/>
<path d="M306.328 5.15714C306.342 5.16069 306.356 5.16306 306.368 5.1678C308.211 5.88708 306.507 13.1961 307.423 15.0553C308.838 16.437 321.238 14.9937 322.257 16.0211C322.34 16.8624 321.757 16.9762 321.412 17.5734C320.103 19.8391 322.13 22.9971 322.914 25.1182C323.325 26.2345 324.317 29.4908 325.117 30.0631L325.439 29.9612C326.047 29.4268 328.68 22.5918 329.195 21.3156C328.251 17.5924 325.22 17.1065 324.789 16.0981C325.282 15.4973 336.586 15.4855 337.503 15.9583C337.833 16.6278 336.696 17.3566 336.457 17.9988C336.313 18.3851 336.201 19.0463 336.123 19.4635C337.323 22.6783 338.84 27.2085 340.11 30.504C340.207 30.7552 340.469 30.7836 340.687 30.8121C340.893 30.6817 341.076 30.5265 341.185 30.3049C343.032 26.5615 346.139 21.4116 342.315 17.8009C341.705 17.2238 340.57 16.7321 340.416 16.0045C341.216 15.0577 349.863 15.8161 351.537 15.6478C351.935 15.6075 352.582 15.7414 352.942 15.9535C353.188 16.7747 351.202 17.2736 350.639 17.6587C346.31 20.6105 343.337 28.4433 341.553 33.329C342.537 35.3245 343.87 35.4868 345.377 36.827C344.416 38.2822 343.177 38.8783 342.344 39.9673C341.051 41.6559 339.928 44.5496 339.195 46.5605C339.027 47.025 338.837 47.0997 338.445 47.2431C338.333 47.2158 338.221 47.1897 338.109 47.1625C337.404 44.8198 336.913 42.4427 336.168 40.1047C334.453 34.7284 332.488 29.4043 330.447 24.1465C330.387 23.9937 330.064 23.7839 329.937 23.6986C328.438 25.7652 326.842 30.4672 325.916 33.0363C326.514 34.0245 327.03 34.6941 327.894 35.4619C328.703 36.1824 329.797 36.1315 330.178 37.0143C329.821 37.8592 328.346 39.0714 327.661 39.9317C326.234 41.7258 325.683 42.8349 324.844 44.9738C324.603 45.5865 323.873 47.4765 323.322 47.7585C322.709 47.1862 321.571 43.0767 321.236 42.0066C319.443 36.4656 317.544 30.959 315.543 25.4903C314.801 23.5137 314.264 21.4696 313.166 19.6471C312.545 18.6174 311.649 17.6895 310.57 17.1409C309.933 16.8162 308.845 16.4643 308.14 16.7617C307.793 16.9086 307.495 17.1681 307.345 17.5189C307.074 18.1517 307.233 37.3153 307.405 39.011C307.506 40.0016 307.875 41.0811 308.264 41.9971C308.547 42.6619 308.993 43.2509 309.69 43.508C310.291 43.7308 310.933 43.7485 311.513 43.4547C312.088 43.1643 312.545 42.6181 312.895 42.0907C314.434 39.7622 314.172 36.7512 313.5 34.181C313.296 33.4048 312.892 32.7199 312.681 31.9567C312.603 31.6724 312.576 31.3358 312.699 31.0609C312.769 30.9057 312.87 30.9258 313.018 30.8808C313.255 30.9483 313.66 31.1107 313.807 31.3027C319.99 39.3795 311.129 51.4912 301.962 44.6207C298.911 42.3348 299.453 38.0499 299.406 34.6064C299.329 29.0263 299.501 23.3834 299.395 17.8009C299.37 16.5294 296.907 17.3542 296.059 16.6574C296.018 16.5105 295.931 16.1562 296.078 16.0685C297.508 15.2141 299.463 14.6927 300.822 13.6487C302.177 12.6083 304.836 10.217 305.35 8.59951C305.749 7.34343 305.534 6.68221 306.328 5.15714Z" fill="white"/>
<path d="M419.183 0.700421C421.293 0.585477 424.331 0.517924 426.459 0.720556C426.627 0.735961 427.047 0.922006 427.056 1.00377C427.17 2.00271 426.789 3.83708 426.66 4.81824C426.221 8.18242 426.519 11.5347 426.407 14.8693C426.264 19.0392 426.276 23.0907 426.281 27.2524L426.274 34.1964C426.263 37.0166 426.071 39.94 427.445 42.5387C428.176 43.9204 429.868 43.0115 430.287 43.8303C428.619 44.014 426.422 44.0389 424.701 44.104C423.138 44.1645 420.997 44.2889 419.477 44.219C418.403 43.5696 419.715 41.9225 419.087 40.9247L418.846 40.875C417.794 41.2435 417.215 43.1359 416.167 43.8279C414.738 44.7712 413.593 45.0828 411.921 45.3246C407.545 45.3376 404.576 41.6547 403.458 37.7359C401.822 32.0006 402.122 26.2131 405.026 20.9447C406.655 17.9905 408.497 15.6774 411.847 14.6583C414.535 13.7921 416.77 15.2947 419.074 16.5614L419.918 15.7509C420.291 10.9008 420.409 5.81481 417.436 1.76098C416.828 1.62589 416.085 1.66026 415.711 1.1436L415.845 0.974145C416.849 0.667234 418.114 0.713456 419.183 0.700421ZM414.767 38.7894C417.387 38.8747 419.411 37.4598 419.476 34.6502C419.416 32.3656 419.496 30.0063 419.405 27.7287C419.323 25.6929 419.575 23.2068 419.256 21.2374C418.844 18.6944 417.032 16.3233 414.32 16.2427C413.896 16.2308 413.471 16.251 413.051 16.3031C410.778 16.9928 410.086 18.5297 409.336 20.5963C407.429 25.8529 407.593 37.3923 414.767 38.7894Z" fill="white"/>
<path d="M260.11 15.9583C262.059 15.643 264.994 16.4323 266.733 17.3791C269.923 19.1163 271.135 21.3381 272.144 24.7189C270.683 26.2404 268.687 26.8969 267.042 27.9882C264.636 29.646 262.156 31.0502 259.683 32.6192C256.358 34.7462 254.132 34.745 258.496 37.8817C261.864 40.3026 265.596 39.0465 268.479 36.4822C268.789 36.2061 269.495 35.3091 269.81 35.251C271.163 35.7001 270.678 38.2443 270.447 39.3202C268.44 46.9207 259.726 48.8416 253.524 44.7854C250.489 42.7994 247.796 37.8224 247.297 34.2639C246.212 26.5177 252.038 17.1006 260.11 15.9583ZM255.192 33.419L257.367 32.1902C257.994 31.8359 259.647 30.7967 260.214 30.5905C266.13 28.4492 265.122 18.1564 258.355 18.5629C256.885 18.8058 255.288 19.3378 254.361 20.6022C252.182 23.5753 252.005 31.113 255.192 33.419Z" fill="white"/>
<path d="M283.427 14.6631C286.585 14.3467 290.237 15.4878 292.991 17.4668C296.839 20.2325 295.36 25.1905 290.732 25.7C288.318 25.9667 285.584 24.0956 285.524 21.4365C285.482 19.5322 286.485 18.6565 287.755 17.3779C287.704 16.5318 286.715 16.2747 286.01 16.2118C284.295 16.0566 281.474 16.4548 280.158 17.6599C277.841 19.7834 278.864 22.8762 281.442 24.1252C285.279 25.9832 289.059 27.199 292.903 28.8711C294.927 29.7503 296.425 32.0326 296.766 34.1193C297.588 37.9077 296.068 41.0231 293.154 43.4464C290.368 45.7618 286.885 46.8295 283.219 46.4467C279.289 46.0936 273.809 43.713 273.091 39.2385C272.723 36.7038 274.876 33.7887 277.468 33.8089C280.619 33.8338 282.59 35.6978 282.589 38.8072C282.589 40.7529 281.216 41.8016 280.008 43.0577C281.066 44.7404 283.251 45.1456 285.151 45.0496C286.782 44.9667 289.327 44.3173 290.396 43.0044C291.015 42.2436 291.544 40.9378 291.384 39.9044C290.197 35.2131 284.078 33.2626 280.007 31.5776C276.81 30.4933 273.608 28.1553 273.255 24.4451C272.67 18.2974 278.133 15.1501 283.427 14.6631Z" fill="white"/>
<path d="M358.707 14.3953C359.241 14.3242 359.888 14.2495 360.173 14.7733C360.011 15.9251 357.535 17.0508 356.604 17.9313C355.298 19.1471 354.342 20.6899 353.832 22.3999C352.378 27.2002 353.915 30.7291 356.13 34.9643C357.804 37.9966 360.602 41.6144 364.015 42.7295C366.469 43.5317 368.784 41.7234 369.341 39.3286C370.391 34.8138 368.825 30.9839 366.649 27.1197C364.512 23.3253 361.798 22.1818 357.635 21.7481C357.34 21.7138 356.906 21.5218 356.747 21.2279C356.759 20.5584 356.833 20.3818 357.187 19.8012C359.184 16.5294 364.171 15.553 367.38 17.6528C369.69 19.3319 371.19 21.1331 372.31 23.8432C373.802 27.66 374.199 34.9038 372.535 38.71C369.787 44.9952 362.3 48.4174 355.988 45.2807C347.346 40.9887 345.403 30.6675 349.265 22.4366C351.401 17.8863 354.163 16.0235 358.707 14.3953Z" fill="white"/>
<path d="M387.185 13.471C387.61 13.5587 387.742 13.6002 387.905 13.9711C387.636 15.1845 385.174 16.2735 384.152 17.2037C383.223 18.0557 382.458 19.07 381.894 20.197C380.487 22.9675 380.253 26.1859 381.24 29.1306C382.879 33.989 385.777 39.4044 390.509 41.8004C393.138 43.1312 395.782 42.1938 396.925 39.4672C398.263 36.2772 397.224 32.8739 396.006 29.8273C394.502 26.161 392.059 22.6049 387.899 21.8642C386.797 21.5313 383.317 21.8714 384.715 19.6898C387.397 15.5033 391.551 15.2177 395.492 17.5959C398.165 19.3936 399.817 22.6262 400.655 25.751C402.735 33.5079 399.958 43.3551 391.485 45.7441C388.377 46.621 384.431 45.6078 381.729 43.9737C378.755 42.1761 375.892 38.1388 375.225 34.6893C373.553 26.0401 378.216 15.5317 387.185 13.471Z" fill="white"/>
<path d="M201.474 90.1247L213.603 77.0659L202.501 65.083H205.631L215.168 75.4029L224.755 65.083H227.591L216.587 76.9191L228.814 90.1247H225.684L215.022 78.631L204.31 90.1247H201.474Z" fill="white"/>
<g clip-path="url(#clip0_6_4195)">
<path d="M153.074 116.717C153.558 116.675 154.344 116.681 154.829 116.694C157.433 116.765 157.182 119.505 158.694 120.925C159.57 121.897 160.889 122.445 161.856 123.228C163.526 124.58 166.423 126.425 166.198 128.833C166.169 130.174 164.694 131.306 164.186 132.316C162.726 135.218 161.128 137.382 158.528 139.42C157.944 139.877 157.278 140.617 156.628 141.151C155.68 142.267 150.909 142.22 149.923 141.353C148.119 139.768 145.127 136.704 144.733 134.287C144.223 131.169 144.405 127.982 145.298 124.947C145.957 123.189 147.194 121.888 148.36 120.476C149.916 118.592 150.479 117.156 153.074 116.717ZM156.119 133.86C157.311 132.937 159.513 131.082 159.687 129.517C159.81 128.408 159.639 126.971 158.877 126.1C158.316 125.458 157.547 124.669 156.627 124.703C155.082 127.238 153.35 131.06 154.065 134.081C154.14 134.399 154.218 134.589 154.493 134.767C155.045 134.905 155.705 134.204 156.119 133.86Z" fill="white"/>
<path d="M178.769 111.936C181.006 111.683 182.414 113.174 182.453 115.302C182.479 116.681 182.159 117.981 181.99 119.344C181.658 122.025 182.081 124.601 182.204 127.27C182.26 127.949 182.422 128.659 182.437 129.337C182.547 134.127 182.69 138.955 182.564 143.744C182.35 145.734 182.048 147.647 181.873 149.642C181.657 152.119 181.386 153.473 178.949 154.295C178.596 154.332 178.294 154.213 177.966 154.11C175.048 153.177 175.536 149.377 175.356 147.008C175.046 142.78 175.212 138.523 175.137 134.283C175.097 131.992 174.594 129.703 174.566 127.451C174.615 124.383 174.372 121.307 174.568 118.244C174.83 114.143 175.015 113.428 178.769 111.936Z" fill="white"/>
<path d="M198.308 140.059C202.295 139.532 199.691 145.067 200.04 145.597C200.132 145.616 200.225 145.633 200.318 145.648C200.776 145.718 202.681 144.825 203.416 144.673C207.272 143.876 211.596 144.612 215.495 144.892C216.896 144.991 218.212 145.021 219.529 145.195C221.447 145.463 223.367 145.721 225.288 145.969C226.209 146.09 228.21 146.397 229.052 146.322C230.81 146.166 233.8 145.453 235.224 144.426C236.87 143.372 236.113 142.373 236.334 141.101C236.688 139.063 239.225 141.526 239.668 142.303C240.438 143.654 240.45 144.346 240.141 145.772C239.596 148.28 238.739 148.967 236.709 150.25C236.509 150.369 236.353 150.515 236.163 150.648C231.268 154.071 224.988 153.892 219.401 152.755C214.493 151.758 209.521 151.446 204.579 151.875C200.254 152.249 195.559 157.854 192.83 151.458C192.583 150.318 192.885 148.991 193.137 147.868C193.908 144.432 194.39 141.065 198.308 140.059Z" fill="white"/>
<path d="M192.154 117.051C194.804 117.07 197.614 116.837 200.292 116.901C201.354 116.927 202.734 116.786 203.763 117.032C205.266 117.293 205.97 117.908 206.856 119.076C207.008 120.108 206.956 120.487 206.766 121.514C206.245 121.962 205.268 123.167 204.941 123.773C202.765 127.8 207.662 132.083 208.953 135.631C209.589 137.38 209.29 138.943 209.368 140.652C208.658 141.082 205.81 142.017 204.87 142.102C204.501 142.134 204.032 142.038 203.662 141.954C203.104 140.255 201.923 137.461 200.743 136.171C199.734 135.066 198.777 135.121 197.402 135.06C196.495 136.391 195.512 137.558 194.816 139.03C194.18 140.513 192.547 143.639 190.475 143.235C189.187 142.984 188.781 143.271 187.567 143.264C187.231 142.969 187.16 141.249 187.274 140.771C188.055 137.51 189.804 134.384 191.765 131.672C192.735 130.332 194.169 129.248 194.83 127.637C195.153 126.87 195.551 125.989 195.956 125.273C196.326 124.62 197.036 124.044 197.493 123.408L197.448 123.3C196.872 122.929 192.739 123.57 191.731 123.557C189.56 123.682 187.298 121.52 187.305 119.354C187.312 116.993 190.67 116.988 192.154 117.051Z" fill="white"/>
<path d="M224.534 114.493C225.726 114.355 227.852 116.443 228.03 117.536C228.463 120.198 228.296 123.027 228.276 125.719C228.264 127.32 228.333 128.962 228.175 130.554C227.894 132.547 227.381 134.48 227.07 136.47C226.913 137.476 227.594 139.042 227.082 139.941C226.769 140.489 226.109 141.272 225.683 141.762C225.198 142.32 224.726 143.256 224.175 143.676C223.608 143.638 222.431 142.711 222.066 142.321C220.165 140.283 220.305 135.242 220.303 132.656C220.289 130.43 220.692 129.077 220.526 126.644C218.717 126.739 216.853 126.705 215.036 126.804C214.112 126.839 213.138 126.821 212.224 126.953C210.581 127.189 209.334 128.869 207.746 127.468C206.396 126.277 205.785 124.438 207.99 123.743C208.891 123.46 209.917 123.487 210.837 123.256C212.406 122.878 213.87 122.144 215.521 122.117C217.43 121.993 219.268 122.286 221.074 122.218C221.115 119.887 221.192 118.076 221.621 115.756C222.478 115.199 223.548 114.763 224.534 114.493Z" fill="white"/>
<path d="M199.742 106.632C200.548 106.659 201.921 106.686 202.5 107.214C204.251 108.813 203.926 111.428 202.548 113.147C201.755 114.134 200.494 114.323 199.354 114.456C196.232 114.16 193.724 110.723 196.232 108.122C197.408 106.903 198.03 106.717 199.742 106.632Z" fill="white"/>
<path d="M259.58 143.219C258.391 143.214 254.666 142.596 254.476 144.498C254.426 145.003 255.033 145.708 255.388 146.035C256.881 147.415 259.635 147.689 261.593 147.649C265.095 147.58 267.791 146.85 270.288 144.273C273.1 141.373 274.115 137.434 277.391 134.909C279.253 133.473 280.461 133.003 282.863 132.955C283.368 132.945 285.231 132.99 285.462 133.473C285.398 133.776 285.174 134.239 284.973 134.477C284.739 134.498 284.811 134.318 284.476 134.353L284.389 134.472C284.451 134.546 284.479 134.573 284.521 134.664C283.87 136.844 282.424 137.565 281.23 139.333C280.887 139.842 280.591 140.947 280.381 141.572L279.52 144.096C279.206 145.036 278.767 145.779 278.342 146.614C277.241 148.774 275.456 150.951 273.235 152.044C272.426 152.443 270.924 153.346 270.122 153.627C267.428 154.57 264.785 155.096 261.916 154.912C260.948 154.851 260.072 154.878 259.113 154.56C258.11 154.229 256.808 153.94 255.853 153.524C254.462 152.87 253.089 151.768 251.961 150.745C251.557 150.378 250.843 149.362 250.62 148.89C249.398 146.299 250.162 143.662 252.799 142.359C254.76 141.391 256.603 141.273 258.715 141C259.426 140.918 261.631 140.939 262.058 140.683C262.126 140.432 261.954 140.091 261.82 139.905C260.414 137.956 260.124 136.434 261.707 134.504C261.993 134.155 263.318 132.98 263.323 132.636C261.804 131.259 257.594 132.789 257.019 130.253C256.994 129.777 257.281 129.225 257.618 128.911C260.161 126.542 265.184 127.039 267.559 129.331C269.612 131.312 269.188 133.745 266.971 135.286C266.646 135.512 265.888 136.138 265.84 136.519C265.818 136.809 266.195 137.343 266.354 137.594C267.715 139.487 267.996 141.263 266.212 143.013C266.061 143.162 265.787 143.219 265.576 143.214C264.829 143.452 260.498 143.337 259.58 143.219Z" fill="white"/>
<path d="M246.726 110.169C249.589 110.048 250.033 111.706 250.568 114.041C250.649 114.396 250.827 115.223 250.764 115.564C250.195 118.623 246.824 119.96 244.804 121.978C244.306 122.475 243.833 122.801 243.468 123.352L243.452 123.376C243.772 123.913 244.449 124.623 244.879 125.109C245.582 124.63 246.594 123.431 247.223 122.81C248.222 121.824 249.214 120.842 250.184 119.827C250.989 118.985 251.995 118.19 252.745 117.298C253.254 116.69 253.677 116.018 254.005 115.299C254.386 114.47 254.64 113.781 254.789 112.88C254.858 112.459 254.906 111.262 255.019 110.953C255.644 110.677 256.402 110.969 256.93 111.32C259.191 112.823 259.385 115.194 259.074 117.64C258.655 120.931 256.586 122.946 254.318 125.16C253.93 125.541 252.865 126.421 252.609 126.793L252.594 126.815C252.992 127.484 253.732 128.223 254.236 128.851C254.793 129.544 255.252 130.196 255.751 130.93C256.7 132.35 256.71 132.653 256.885 134.399C256.902 134.576 256.853 134.63 256.753 134.742C256.514 134.825 256.205 134.744 255.944 134.648C253.752 133.839 253.269 131.215 251.706 129.695C251.463 129.458 251.296 129.054 250.972 128.933C250.617 128.945 250.304 129.283 250.025 129.463C248.709 130.312 248.309 130.989 247.741 132.387C247.339 133.375 245.6 136.622 244.246 136.323C241.357 135.684 242.293 132.057 242.618 130.021C242.714 129.413 242.775 128.736 242.85 128.108C242.601 127.597 241.878 126.326 241.308 126.386C239.551 126.572 237.635 130.343 235.649 129.034C233.697 127.46 234.671 124.085 235.195 122.008C235.754 120.647 237.123 119.207 238.06 118.115C240.098 115.739 242.927 114.237 244.653 111.599C245.183 110.79 245.742 110.345 246.726 110.169Z" fill="white"/>
<path d="M262.532 106.03C262.477 106.067 262.119 106.378 262.063 106.428C261.374 109.069 263.267 108.814 263.804 111.002C264.018 111.879 263.919 113.407 263.849 114.315C263.434 116.148 263.464 117.489 263.48 119.364C263.506 122.22 263.575 126.535 267.013 127.512C267.575 127.668 268.847 127.712 269.118 127.1C269.089 126.439 268.146 125.775 268.303 125.46C268.669 124.73 269.109 123.799 269.461 123.053C269.643 122.975 271.234 116.007 271.234 116.007C271.148 115.894 271.234 115.542 271.247 115.387C271.523 112.187 272.013 108.247 268.682 106.371C267.985 105.979 267.329 105.494 266.49 105.391C265.578 105.353 263.321 105.5 262.532 106.03Z" fill="white"/>
<path d="M277.103 119.02C276.497 119.227 275.47 119.593 274.892 119.364C273.142 118.67 271.809 117.485 273.186 114.973C273.67 114.092 274.936 112.934 275.745 112.515C278.146 111.855 281.845 114.434 280.715 117.071C280.186 118.307 278.35 118.475 277.103 119.02Z" fill="white"/>
</g>
<defs>
<clipPath id="clip0_6_4195">
<rect width="141.381" height="50.0835" fill="white" transform="translate(144.453 105.125)"/>
</clipPath>
</defs>
</svg>
